<?xml version="1.0" encoding="UTF-8" standalone="no"?>
<svg
   xmlns:dc="http://purl.org/dc/elements/1.1/"
   xmlns:cc="http://web.resource.org/cc/"
   xmlns:rdf="http://www.w3.org/1999/02/22-rdf-syntax-ns#"
   xmlns:svg="http://www.w3.org/2000/svg"
   xmlns="http://www.w3.org/2000/svg"
   xmlns:xlink="http://www.w3.org/1999/xlink"
   xmlns:sodipodi="http://sodipodi.sourceforge.net/DTD/sodipodi-0.dtd"
   xmlns:inkscape="http://www.inkscape.org/namespaces/inkscape"
   xml:space="preserve"
   stroke-miterlimit="10"
   width="60"
   height="20"
   viewbox="0 0 64 20"
   style="shape-rendering:geometricPrecision; text-rendering:geometricPrecision; image-rendering:optimizeQuality; fill-rule:evenodd; clip-rule:evenodd"
   id="svg"
   sodipodi:version="0.32"
   inkscape:version="0.45"
   version="1.0"
   sodipodi:docname="Translation_arrow.svg"
   inkscape:output_extension="org.inkscape.output.svg.inkscape"
   sodipodi:docbase="D:\Bureau"
   sodipodi:modified="true"><metadata
   id="metadata17"><rdf:RDF><cc:Work
       rdf:about=""><dc:format>image/svg+xml</dc:format><dc:type
         rdf:resource="http://purl.org/dc/dcmitype/StillImage" /></cc:Work></rdf:RDF></metadata>
	<sodipodi:namedview
   inkscape:window-height="682"
   inkscape:window-width="1024"
   bordercolor="#666"
   pagecolor="#FFF"
   id="base"
   width="60px"
   height="20px"
   showguides="false"
   inkscape:window-x="-4"
   inkscape:window-y="-4"
   inkscape:zoom="15.65"
   inkscape:cx="29.593266"
   inkscape:cy="9.377204"
   inkscape:current-layer="svg" />
	<defs
   id="defs4">
		<linearGradient
   id="linearGradient1"
   inkscape:collect="always"
   x1="36"
   y1="7"
   x2="24"
   y2="7"
   gradientUnits="userSpaceOnUse">
			<stop
   id="rightside"
   style="stop-color:#e12;stop-opacity:1"
   offset="0" />
			<stop
   id="leftside"
   style="stop-color:#e12;stop-opacity:0"
   offset="1" />
		</linearGradient>
	
		
		
		
		
	<linearGradient
   inkscape:collect="always"
   xlink:href="#linearGradient1"
   id="linearGradient2172"
   gradientUnits="userSpaceOnUse"
   x1="36"
   y1="7"
   x2="24"
   y2="7" />
		
		
	</defs>
	<path
   d="M 7.0004378,2.4498607 L 1.6852906,14.895084 C 1.2963774,15.67291 0.90746416,15.932186 0.38891321,15.932186 L 0,15.932186 L 0,16.969288 L 4.926234,16.969288 L 4.926234,15.932186 L 3.7594944,15.932186 C 3.2409434,15.932186 2.981668,15.802548 2.981668,15.543272 C 2.981668,15.283997 3.1113057,14.895084 3.1113057,14.895084 L 3.8891321,13.080155 L 9.852468,13.080155 L 10.630294,14.895084 C 10.630294,14.895084 10.759932,15.283997 10.759932,15.543272 C 10.759932,15.802548 10.630294,15.932186 10.241381,15.932186 L 9.852468,15.932186 L 9.852468,16.969288 L 16.075079,16.969288 L 16.075079,15.932186 L 15.556528,15.932186 C 15.167615,15.932186 14.778702,15.413635 14.260151,14.376533 L 9.0746416,2.4498607 L 7.0004378,2.4498607 z M 6.8708001,6.0797173 L 9.3339171,11.783778 L 4.4076831,11.783778 L 6.8708001,6.0797173 z "
   style="fill:#333333"
   id="LatinA" /><path
   style="font-size:144px;font-style:normal;font-variant:normal;font-weight:normal;font-stretch:normal;text-align:start;line-height:125%;writing-mode:lr-tb;text-anchor:start;font-family:Doulos SIL;fill:#333333;fill-opacity:1"
   d="M 59.882051,12.934259 C 59.882038,13.195288 59.84941,13.45994 59.784166,13.728212 C 59.718897,13.996492 59.624638,14.261145 59.501388,14.522168 C 59.378113,14.783197 59.222223,15.033346 59.033715,15.272618 C 58.845184,15.504642 58.631289,15.714915 58.392027,15.903433 C 58.159992,16.0847 57.89534,16.244216 57.598071,16.38198 C 57.308032,16.512493 56.967247,16.621255 56.575719,16.708262 C 56.19142,16.795271 55.752752,16.860527 55.259712,16.904032 C 54.766654,16.947536 54.204723,16.969288 53.573917,16.969288 L 46.634969,16.969288 L 46.634969,16.555997 L 47.167899,16.555997 C 47.776958,16.555997 48.219252,16.360229 48.494782,15.968687 C 48.567287,15.845428 48.625292,15.649657 48.668799,15.381379 C 48.712301,15.113105 48.734053,14.768696 48.734056,14.348149 L 48.734056,4.820692 C 48.734053,3.9071142 48.632543,3.3270564 48.429525,3.0805173 C 48.284508,2.9282667 48.110491,2.8122551 47.907473,2.7324826 C 47.704451,2.6527392 47.457926,2.6128603 47.167899,2.6128458 L 46.634969,2.6128458 L 46.634969,2.2213067 L 52.997485,2.2213067 C 53.867564,2.2213214 54.621639,2.2793271 55.259712,2.3953241 C 55.905017,2.5040994 56.456072,2.6563647 56.912877,2.8521196 C 57.376914,3.0479036 57.757577,3.2763014 58.054868,3.5373143 C 58.352136,3.7983534 58.584158,4.0738808 58.750937,4.3638965 C 58.924943,4.6539385 59.04458,4.9548435 59.109848,5.2666129 C 59.175092,5.5711549 59.20772,5.8720598 59.207732,6.1693278 C 59.20772,6.5246248 59.149715,6.8690341 59.033715,7.2025571 C 58.924943,7.5361005 58.758176,7.8442562 58.533416,8.1270256 C 58.315882,8.4098125 58.040355,8.6635877 57.706832,8.8883513 C 57.373289,9.1058818 56.981749,9.2835245 56.532214,9.4212794 C 57.112263,9.530049 57.612563,9.6968146 58.033116,9.9215808 C 58.453645,10.14636 58.80168,10.41101 59.077219,10.715534 C 59.352736,11.020071 59.555755,11.360855 59.686282,11.737888 C 59.816781,12.11493 59.882038,12.513719 59.882051,12.934259 M 56.923754,6.0605669 C 56.923744,5.6400367 56.84036,5.241247 56.673604,4.8641964 C 56.506827,4.4871719 56.249427,4.1572641 55.901401,3.8744728 C 55.560608,3.5917078 55.132816,3.3669354 54.618023,3.2001542 C 54.103212,3.0334022 53.497777,2.9500188 52.801714,2.9500043 C 52.431922,2.9500188 52.083887,2.9681457 51.75761,3.0043847 C 51.431322,3.0334022 51.123166,3.0877826 50.833141,3.1675259 L 50.833141,8.8448471 C 51.115915,8.9101123 51.424071,8.9536167 51.75761,8.97536 C 52.091137,8.9898703 52.475425,8.9971209 52.910475,8.9971122 C 53.62829,8.9971209 54.240976,8.9318645 54.748536,8.8013427 C 55.256078,8.6635877 55.669369,8.4714437 55.988409,8.2249103 C 56.314683,7.9711438 56.550331,7.6629882 56.695356,7.3004419 C 56.847611,6.9379159 56.923744,6.5246248 56.923754,6.0605669 M 57.369673,13.108276 C 57.369663,12.61523 57.268153,12.165687 57.065143,11.75964 C 56.869364,11.346354 56.575709,10.991069 56.18418,10.693782 C 55.799882,10.396509 55.321334,10.164487 54.748536,9.9977138 C 54.17572,9.8309539 53.515905,9.7475703 52.769086,9.7475639 C 52.305034,9.7475703 51.91712,9.754821 51.605345,9.7693159 C 51.293558,9.7838247 51.036157,9.8128273 50.833141,9.8563238 L 50.833141,15.903433 C 51.260929,15.997691 51.681472,16.070199 52.094769,16.120953 C 52.508053,16.171709 52.924971,16.197086 53.34552,16.197086 C 53.998077,16.197086 54.57451,16.120953 55.074818,15.968687 C 55.575109,15.816425 55.995652,15.602527 56.336445,15.327 C 56.677219,15.051473 56.934619,14.725192 57.108647,14.348149 C 57.282654,13.971115 57.369663,13.557825 57.369673,13.108276"
   id="flowRoot1322"
   sodipodi:nodetypes="csssssssccccssccssccccssssssssscsssccsssssccsssssccsssssccsssssc" /><rect
   style="fill:#0055aa"
   y="7"
   x="16.546326"
   height="6"
   width="20.453674"
   id="midbar" /><rect
   x="24"
   y="7"
   width="12"
   height="6"
   style="fill:url(#linearGradient2172);fill-opacity:1"
   id="midbargradient" /><path
   d="M 36,3 L 45,10 L 36,17 L 36,3 z "
   style="fill:#ee1122"
   id="rightarrow" />
	
</svg>